<?xml version="1.0" encoding="iso-8859-1"?>
<!-- Generator: Adobe Illustrator 16.0.0, SVG Export Plug-In . SVG Version: 6.00 Build 0)  -->
<!DOCTYPE svg PUBLIC "-//W3C//DTD SVG 1.1//EN" "http://www.w3.org/Graphics/SVG/1.1/DTD/svg11.dtd">
<svg version="1.1" id="&#x56FE;&#x5C42;_1" xmlns="http://www.w3.org/2000/svg" xmlns:xlink="http://www.w3.org/1999/xlink" x="0px"
	 y="0px" width="1024px" height="1024px" viewBox="0 0 320.315 320.315" 
	 xml:space="preserve">
<g>
	<defs>
		<polygon id="SVGID_1_" points="216.196,245.194 216.196,111.275 250.973,93.053 250.973,232.321 272.298,220.41 272.298,81.879 
			304.193,65.168 304.193,245.194 165.22,318.013 165.22,271.472 165.22,245.726 165.22,137.985 194.87,122.449 194.87,257.107 		
			"/>
	</defs>
	<clipPath id="SVGID_2_">
		<use xlink:href="#SVGID_1_"  style="overflow:visible;"/>
	</clipPath>
	
		<linearGradient id="SVGID_3_" gradientUnits="userSpaceOnUse" x1="-160.1572" y1="443.7549" x2="-159.1572" y2="443.7549" gradientTransform="matrix(0 280.6707 280.6707 0 -124314.2422 44962.25)">
		<stop  offset="0" style="stop-color:#1D2088"/>
		<stop  offset="1" style="stop-color:#00A0E9"/>
	</linearGradient>
	<rect x="165.22" y="65.168" style="clip-path:url(#SVGID_2_);fill:url(#SVGID_3_);" width="138.974" height="252.845"/>
</g>
<g>
	<defs>
		<polygon id="SVGID_4_" points="133.321,118.026 156.405,130.2 156.405,104.996 		"/>
	</defs>
	<clipPath id="SVGID_5_">
		<use xlink:href="#SVGID_4_"  style="overflow:visible;"/>
	</clipPath>
	
		<linearGradient id="SVGID_6_" gradientUnits="userSpaceOnUse" x1="-160.1572" y1="443.7549" x2="-159.1572" y2="443.7549" gradientTransform="matrix(0 280.6671 280.6671 0 -124402.6641 44961.6914)">
		<stop  offset="0" style="stop-color:#1D2088"/>
		<stop  offset="1" style="stop-color:#00A0E9"/>
	</linearGradient>
	<rect x="133.321" y="104.996" style="clip-path:url(#SVGID_5_);fill:url(#SVGID_6_);" width="23.084" height="25.204"/>
</g>
<g>
	<defs>
		<polygon id="SVGID_7_" points="164.233,2.302 164.233,130.202 303.162,56.933 		"/>
	</defs>
	<clipPath id="SVGID_8_">
		<use xlink:href="#SVGID_7_"  style="overflow:visible;"/>
	</clipPath>
	
		<linearGradient id="SVGID_9_" gradientUnits="userSpaceOnUse" x1="-160.1572" y1="443.7549" x2="-159.1572" y2="443.7549" gradientTransform="matrix(0 280.6722 280.6722 0 -124315.9766 44962.5664)">
		<stop  offset="0" style="stop-color:#00A0E9"/>
		<stop  offset="1" style="stop-color:#1D2088"/>
	</linearGradient>
	<rect x="164.233" y="2.302" style="clip-path:url(#SVGID_8_);fill:url(#SVGID_9_);" width="138.929" height="127.9"/>
</g>
<g>
	<defs>
		<polygon id="SVGID_10_" points="156.405,28.766 156.405,2.303 53.335,42.834 48.946,44.559 17.48,56.933 48.946,73.528 
			51.915,75.093 		"/>
	</defs>
	<clipPath id="SVGID_11_">
		<use xlink:href="#SVGID_10_"  style="overflow:visible;"/>
	</clipPath>
	
		<linearGradient id="SVGID_12_" gradientUnits="userSpaceOnUse" x1="-160.1572" y1="443.7549" x2="-159.1572" y2="443.7549" gradientTransform="matrix(0 280.668 280.668 0 -124460.7969 44961.8359)">
		<stop  offset="0" style="stop-color:#1D2088"/>
		<stop  offset="1" style="stop-color:#00A0E9"/>
	</linearGradient>
	<rect x="17.48" y="2.303" style="clip-path:url(#SVGID_11_);fill:url(#SVGID_12_);" width="138.925" height="72.79"/>
</g>
<g>
	<defs>
		<polygon id="SVGID_13_" points="108.649,105.014 156.405,80.09 156.405,53.548 77.377,88.522 105.048,103.116 		"/>
	</defs>
	<clipPath id="SVGID_14_">
		<use xlink:href="#SVGID_13_"  style="overflow:visible;"/>
	</clipPath>
	
		<linearGradient id="SVGID_15_" gradientUnits="userSpaceOnUse" x1="-160.1572" y1="443.7549" x2="-159.1572" y2="443.7549" gradientTransform="matrix(0 280.6692 280.6692 0 -124431.4844 44961.9414)">
		<stop  offset="0" style="stop-color:#1D2088"/>
		<stop  offset="1" style="stop-color:#00A0E9"/>
	</linearGradient>
	<rect x="77.377" y="53.548" style="clip-path:url(#SVGID_14_);fill:url(#SVGID_15_);" width="79.028" height="51.466"/>
</g>
<g>
	<defs>
		<polygon id="SVGID_16_" points="156.024,183.251 156.024,137.985 17.052,65.168 17.052,90.125 17.052,109.633 17.052,135.379 
			17.052,163.464 17.052,167.236 112.134,217.605 112.134,243.35 17.052,192.982 17.052,245.194 156.024,318.013 156.024,294.748 
			156.024,266.6 156.024,240.854 156.024,221.408 156.024,208.996 60.942,158.628 60.942,132.883 		"/>
	</defs>
	<clipPath id="SVGID_17_">
		<use xlink:href="#SVGID_16_"  style="overflow:visible;"/>
	</clipPath>
	
		<linearGradient id="SVGID_18_" gradientUnits="userSpaceOnUse" x1="-160.1572" y1="443.7549" x2="-159.1572" y2="443.7549" gradientTransform="matrix(0 280.6707 280.6707 0 -124462.4922 44962.25)">
		<stop  offset="0" style="stop-color:#1D2088"/>
		<stop  offset="1" style="stop-color:#00A0E9"/>
	</linearGradient>
	<rect x="17.052" y="65.168" style="clip-path:url(#SVGID_17_);fill:url(#SVGID_18_);" width="138.972" height="252.845"/>
</g>
</svg>
